Coordinates
version=1
nRows=16
nColumns=33
inDegrees=yes

Units are S.I. units (second, meters, Newtons, ...)
Angles are in degrees.

endheader
time	ground_thorax_rot_x	ground_thorax_rot_y	ground_thorax_rot_z	ground_thorax_tx	ground_thorax_ty	ground_thorax_tz	clav_prot_r	clav_elev_r	scapula_abduction_r	scapula_elevation_r	scapula_upward_rot_r	scapula_winging_r	shoulder_elv_r	plane_of_elev_r	axial_rot_r	elbow_flexion_r	pro_sup_r	wrist_flex_r	wrist_dev_r	clav_prot_l	clav_elev_l	scapula_abduction_l	scapula_elevation_l	scapula_upward_rot_l	scapula_winging_l	shoulder_elv_l	plane_of_elev_l	axial_rot_l	elbow_flexion_l	pro_sup_l	wrist_flex_l	wrist_dev_l	
11.1500	-30.396371	-29.591365	38.911256	-87.472257	850.076344	-45.568366	27.182802	-45.000000	41.023370	-45.000000	-45.000000	-2626.939308	-3881.967660	21.926266	-148.676550	1798.842987	-201.731069	15.218981	14.622167	-0.592998	33.241273	-32.904767	-45.000000	-45.000000	-2070.494475	-2441.004874	27.354345	49.745894	1428.779122	35.307180	14.872580	-18.197415	
11.1600	-30.548516	-29.437330	38.587993	-88.926373	850.862997	-45.805326	27.147920	-45.000000	41.009771	-45.000000	-45.000000	-2627.019997	-3881.909210	21.911616	-148.512398	1798.817579	-201.473528	15.372704	14.597258	-0.596626	33.255951	-32.921127	-45.000000	-45.000000	-2070.463927	-2440.996262	27.353157	49.633019	1428.764879	35.264927	14.886823	-18.237155	
11.1700	-30.686070	-29.280901	38.286534	-90.353917	851.593235	-46.049079	27.109550	-45.000000	40.996696	-45.000000	-45.000000	-2627.090846	-3881.848987	21.878371	-148.355016	1798.791751	-201.179923	15.528257	14.565838	-0.589875	33.272521	-32.922770	-45.000000	-45.000000	-2070.452157	-2440.980733	27.343721	49.502781	1428.751518	35.223433	14.879142	-18.265246	
11.1800	-30.815183	-29.126615	38.000974	-91.755387	852.267387	-46.297114	27.079540	-45.000000	40.976377	-45.000000	-45.000000	-2627.163673	-3881.796274	21.850510	-148.199594	1798.773758	-200.858928	15.686748	14.524332	-0.588358	33.285389	-32.924673	-45.000000	-45.000000	-2070.434225	-2440.968803	27.330440	49.367498	1428.738892	35.182511	14.870355	-18.301637	
11.1900	-30.933231	-28.974168	37.730002	-93.131272	852.885866	-46.546203	27.049368	-45.000000	40.952675	-45.000000	-45.000000	-2627.229424	-3881.745172	21.817135	-148.049211	1798.760371	-200.519420	15.842558	14.477242	-0.582933	33.297066	-32.920899	-45.000000	-45.000000	-2070.420692	-2440.961694	27.309023	49.229500	1428.733685	35.143183	14.847881	-18.342297	
11.2000	-31.046371	-28.825053	37.467570	-94.482475	853.449015	-46.792745	27.027042	-45.000000	40.920440	-45.000000	-45.000000	-2627.299960	-3881.703552	21.796428	-147.900092	1798.754374	-200.170729	15.996729	14.421738	-0.585907	33.303458	-32.922255	-45.000000	-45.000000	-2070.394871	-2440.962044	27.284503	49.096975	1428.729239	35.108266	14.830893	-18.399994	
11.2100	-31.153645	-28.670581	37.208213	-95.810062	853.956876	-47.033007	27.004778	-45.000000	40.883001	-45.000000	-45.000000	-2627.367155	-3881.665309	21.774588	-147.753013	1798.750616	-199.821348	16.143888	14.365269	-0.588599	33.308520	-32.920434	-45.000000	-45.000000	-2070.372970	-2440.969172	27.260443	48.968301	1428.727926	35.079842	14.805114	-18.466543	
11.2200	-31.255012	-28.515363	36.955332	-97.115705	854.409403	-47.263568	26.985132	-45.000000	40.843075	-45.000000	-45.000000	-2627.437518	-3881.634683	21.754549	-147.608944	1798.747491	-199.477545	16.283272	14.304099	-0.593090	33.311582	-32.915739	-45.000000	-45.000000	-2070.352415	-2440.976911	27.236438	48.842447	1428.723192	35.060800	14.781733	-18.542146	
11.2300	-31.348360	-28.357133	36.709280	-98.400922	854.806421	-47.481526	26.968165	-45.000000	40.801908	-45.000000	-45.000000	-2627.506470	-3881.607133	21.729921	-147.464475	1798.745842	-199.141677	16.411562	14.243239	-0.598134	33.313284	-32.910731	-45.000000	-45.000000	-2070.335392	-2440.988568	27.212517	48.720586	1428.716679	35.051590	14.753041	-18.623034	
11.2400	-31.434178	-28.201400	36.474383	-99.666787	855.147979	-47.684770	26.953373	-45.000000	40.760206	-45.000000	-45.000000	-2627.577536	-3881.585653	21.700525	-147.320656	1798.742030	-198.814758	16.528361	14.180889	-0.604173	33.313203	-32.903513	-45.000000	-45.000000	-2070.321312	-2440.997909	27.185882	48.601962	1428.705941	35.052607	14.724134	-18.707792	
11.2500	-31.514094	-28.043875	36.245834	-100.913531	855.434564	-47.872012	26.943075	-45.000000	40.714221	-45.000000	-45.000000	-2627.648272	-3881.567975	21.669135	-147.172054	1798.738766	-198.495974	16.632284	14.122014	-0.614859	33.310719	-32.896250	-45.000000	-45.000000	-2070.308104	-2441.012099	27.160346	48.491672	1428.696972	35.061538	14.689756	-18.798972	
11.2600	-31.587061	-27.889594	36.026150	-102.139834	855.667313	-48.042623	26.933929	-45.000000	40.665484	-45.000000	-45.000000	-2627.717738	-3881.553529	21.635513	-147.021423	1798.735363	-198.185935	16.723335	14.062818	-0.625924	33.306647	-32.882591	-45.000000	-45.000000	-2070.298876	-2441.027414	27.132931	48.390098	1428.691560	35.077599	14.652583	-18.894953	
11.2700	-31.656209	-27.735070	35.807661	-103.343086	855.848128	-48.196316	26.932507	-45.000000	40.610067	-45.000000	-45.000000	-2627.787845	-3881.542283	21.612001	-146.862874	1798.737733	-197.885403	16.803694	14.005281	-0.645750	33.298750	-32.870666	-45.000000	-45.000000	-2070.283585	-2441.053620	27.108353	48.302968	1428.691821	35.099395	14.615978	-19.003767	
11.2800	-31.721362	-27.577668	35.590265	-104.519096	855.979531	-48.332698	26.931707	-45.000000	40.553102	-45.000000	-45.000000	-2627.855538	-3881.533466	21.589670	-146.702494	1798.739620	-197.598538	16.875025	13.948958	-0.665091	33.290429	-32.849330	-45.000000	-45.000000	-2070.274981	-2441.082137	27.087767	48.223114	1428.696313	35.127937	14.575642	-19.117806	
11.2900	-31.783391	-27.415422	35.373373	-105.663240	856.064680	-48.451027	26.935883	-45.000000	40.494669	-45.000000	-45.000000	-2627.922815	-3881.529554	21.570747	-146.540315	1798.741323	-197.329247	16.940386	13.894581	-0.687603	33.281572	-32.819960	-45.000000	-45.000000	-2070.271953	-2441.114488	27.074245	48.146513	1428.702056	35.163990	14.532651	-19.238020	
11.3000	-31.838943	-27.252232	35.164331	-106.770543	856.107017	-48.550024	26.939590	-45.000000	40.439938	-45.000000	-45.000000	-2627.985368	-3881.528711	21.545218	-146.383369	1798.741500	-197.082889	17.001067	13.838945	-0.704616	33.274292	-32.776963	-45.000000	-45.000000	-2070.282634	-2441.144459	27.063415	48.066460	1428.706259	35.209158	14.484015	-19.356577	
